<svg aria-hidden="true"  version="1.1" xmlns="http://www.w3.org/2000/svg" xmlns:xlink="http://www.w3.org/1999/xlink">
<defs>
<symbol id="icon-cicle" viewBox="0 0 32 32">
<title>cicle</title>
<path fill="none" stroke="#fff" style="stroke: var(--color1, #fff)" stroke-linejoin="miter" stroke-linecap="butt" stroke-miterlimit="50" stroke-width="7.1111" d="M16 0c8.837 0 16 7.163 16 16s-7.163 16-16 16v0c-8.837 0-16-7.163-16-16s7.163-16 16-16v0z"></path>
</symbol>
<symbol id="icon-instagram" viewBox="0 0 32 32">
<title>instagram</title>
<path fill="#fff" style="fill: var(--color1, #fff)" d="M20.571 16q0-1.893-1.339-3.232t-3.232-1.339-3.232 1.339-1.339 3.232 1.339 3.232 3.232 1.339 3.232-1.339 1.339-3.232zM23.036 16q0 2.929-2.054 4.982t-4.982 2.054-4.982-2.054-2.054-4.982 2.054-4.982 4.982-2.054 4.982 2.054 2.054 4.982zM24.964 8.679q0 0.679-0.482 1.161t-1.161 0.482-1.161-0.482-0.482-1.161 0.482-1.161 1.161-0.482 1.161 0.482 0.482 1.161zM16 4.75q-0.125 0-1.366-0.009t-1.884 0-1.723 0.054-1.839 0.179-1.277 0.33q-0.893 0.357-1.571 1.036t-1.036 1.571q-0.196 0.518-0.33 1.277t-0.179 1.839-0.054 1.723 0 1.884 0.009 1.366-0.009 1.366 0 1.884 0.054 1.723 0.179 1.839 0.33 1.277q0.357 0.893 1.036 1.571t1.571 1.036q0.518 0.196 1.277 0.33t1.839 0.179 1.723 0.054 1.884 0 1.366-0.009 1.366 0.009 1.884 0 1.723-0.054 1.839-0.179 1.277-0.33q0.893-0.357 1.571-1.036t1.036-1.571q0.196-0.518 0.33-1.277t0.179-1.839 0.054-1.723 0-1.884-0.009-1.366 0.009-1.366 0-1.884-0.054-1.723-0.179-1.839-0.33-1.277q-0.357-0.893-1.036-1.571t-1.571-1.036q-0.518-0.196-1.277-0.33t-1.839-0.179-1.723-0.054-1.884 0-1.366 0.009zM29.714 16q0 4.089-0.089 5.661-0.179 3.714-2.214 5.75t-5.75 2.214q-1.571 0.089-5.661 0.089t-5.661-0.089q-3.714-0.179-5.75-2.214t-2.214-5.75q-0.089-1.571-0.089-5.661t0.089-5.661q0.179-3.714 2.214-5.75t5.75-2.214q1.571-0.089 5.661-0.089t5.661 0.089q3.714 0.179 5.75 2.214t2.214 5.75q0.089 1.571 0.089 5.661z"></path>
</symbol>
<symbol id="icon-logo" viewBox="0 0 32 32">
<title>logo</title>
<path fill="#fff" style="fill: var(--color1, #fff)"  d="M3.351 18.097l2.211-0.019-1.435-2.457-1.811 3.228-2.316 0.020 3.419-5.944 0.429 0.734-2.563 4.457 0.6-0.005 2.23-3.974 2.729 4.673-3.8 0.033zM8.986 19.584l-4.157-7.139 0.049-0.029 1.313 2.254v-0.706h0.688l0.56 0.935 0.56-0.935h0.688v2.415h-0.648v-1.387l-0.601 0.946h-0.013l-0.598-0.939v0.766l2.207 3.79zM9.359 15.178v-0.007c0-0.694 0.544-1.256 1.268-1.256s1.262 0.555 1.262 1.249v0.007c0 0.694-0.544 1.256-1.268 1.256s-1.262-0.556-1.262-1.249zM11.225 15.178v-0.007c0-0.349-0.245-0.652-0.604-0.652-0.356 0-0.594 0.297-0.594 0.645v0.007c0 0.349 0.245 0.652 0.601 0.652 0.359 0 0.597-0.297 0.597-0.645zM12.564 13.964h0.607l0.966 1.277v-1.277h0.644v2.415h-0.57l-1.003-1.325v1.325h-0.644zM16.108 14.55h-0.705v-0.587h2.060v0.587h-0.705v1.829h-0.651zM18.099 13.964h0.654v2.415h-0.654zM19.438 15.178v-0.007c0-0.704 0.527-1.256 1.238-1.256 0.48 0 0.789 0.207 0.997 0.504l-0.49 0.39c-0.134-0.172-0.289-0.283-0.513-0.283-0.329 0-0.56 0.286-0.56 0.638v0.007c0 0.362 0.232 0.645 0.56 0.645 0.245 0 0.389-0.117 0.53-0.293l0.49 0.359c-0.221 0.314-0.52 0.545-1.040 0.545-0.671 0-1.211-0.528-1.211-1.249zM22.304 13.964h1.889v0.569h-1.245v0.366h1.127v0.528h-1.127v0.383h1.262v0.569h-1.906zM24.878 13.964h0.651v1.829h1.138v0.587h-1.789zM27.282 13.964h0.651v1.829h1.138v0.587h-1.789zM29.47 15.178v-0.007c0-0.694 0.544-1.256 1.269-1.256s1.262 0.555 1.262 1.249v0.007c0 0.694-0.544 1.256-1.268 1.256s-1.262-0.556-1.262-1.249zM31.336 15.178v-0.007c0-0.349-0.245-0.652-0.604-0.652-0.356 0-0.594 0.297-0.594 0.645v0.007c0 0.349 0.245 0.652 0.601 0.652 0.359 0 0.597-0.297 0.597-0.645zM9.493 17.687h0.090v0.805h-0.090zM10.273 17.687h0.084l0.503 0.645v-0.645h0.088v0.805h-0.072l-0.515-0.66v0.66h-0.088zM11.841 17.771h-0.268v-0.084h0.627v0.084h-0.268v0.721h-0.091zM12.826 17.687h0.577v0.083h-0.487v0.275h0.435v0.083h-0.436v0.282h0.493v0.083h-0.583zM14.046 17.687h0.343c0.098 0 0.177 0.030 0.227 0.080 0.039 0.039 0.061 0.095 0.061 0.159v0.002c0 0.133-0.091 0.212-0.216 0.235l0.245 0.329h-0.111l-0.231-0.313h-0.228v0.313h-0.090zM14.381 18.098c0.12 0 0.205-0.062 0.205-0.166v-0.002c0-0.099-0.075-0.159-0.204-0.159h-0.246v0.327zM15.327 17.687h0.084l0.503 0.645v-0.645h0.088v0.805h-0.072l-0.515-0.66v0.66h-0.088zM16.98 17.681h0.084l0.364 0.811h-0.097l-0.093-0.213h-0.434l-0.095 0.213h-0.092zM17.202 18.198l-0.181-0.41-0.182 0.41zM18.15 17.771h-0.268v-0.084h0.627v0.084h-0.268v0.721h-0.091zM19.142 17.687h0.090v0.805h-0.090zM19.887 18.092v-0.002c0-0.222 0.165-0.416 0.408-0.416s0.406 0.192 0.406 0.414v0.002c0 0.222-0.165 0.416-0.408 0.416s-0.406-0.192-0.406-0.414zM20.608 18.092v-0.002c0-0.183-0.132-0.332-0.315-0.332s-0.312 0.147-0.312 0.33v0.002c0 0.183 0.132 0.332 0.315 0.332s0.312-0.147 0.312-0.33zM21.348 17.687h0.084l0.503 0.645v-0.645h0.088v0.805h-0.072l-0.515-0.66v0.66h-0.088zM23.001 17.681h0.084l0.364 0.811h-0.097l-0.093-0.213h-0.434l-0.095 0.213h-0.092zM23.223 18.198l-0.181-0.41-0.182 0.41zM24.063 17.687h0.090v0.721h0.449v0.084h-0.539zM25.988 18.092v-0.002c0-0.221 0.161-0.416 0.4-0.416 0.134 0 0.218 0.039 0.297 0.107l-0.058 0.069c-0.061-0.054-0.13-0.092-0.243-0.092-0.177 0-0.303 0.151-0.303 0.33v0.002c0 0.192 0.122 0.335 0.316 0.335 0.091 0 0.176-0.036 0.23-0.080v-0.2h-0.243v-0.082h0.329v0.321c-0.074 0.067-0.186 0.123-0.32 0.123-0.251 0-0.406-0.184-0.406-0.414zM27.374 17.687h0.343c0.098 0 0.177 0.030 0.227 0.080 0.039 0.039 0.062 0.095 0.062 0.159v0.002c0 0.133-0.091 0.212-0.217 0.235l0.245 0.329h-0.111l-0.231-0.313h-0.228v0.313h-0.090zM27.709 18.098c0.12 0 0.205-0.062 0.205-0.165v-0.002c0-0.099-0.075-0.159-0.204-0.159h-0.246v0.327zM28.62 18.092v-0.002c0-0.222 0.165-0.416 0.408-0.416s0.406 0.192 0.406 0.414v0.002c0 0.222-0.165 0.416-0.408 0.416s-0.406-0.192-0.406-0.414zM29.34 18.092v-0.002c0-0.183-0.132-0.332-0.315-0.332s-0.312 0.147-0.312 0.33v0.002c0 0.183 0.132 0.332 0.315 0.332s0.312-0.147 0.312-0.33zM30.068 18.155v-0.468h0.090v0.462c0 0.174 0.091 0.271 0.244 0.271 0.147 0 0.241-0.090 0.241-0.266v-0.468h0.090v0.461c0 0.235-0.133 0.356-0.333 0.356-0.197 0-0.332-0.122-0.332-0.349zM31.403 17.687h0.299c0.18 0 0.299 0.097 0.299 0.255v0.002c0 0.174-0.144 0.263-0.313 0.263h-0.194v0.284h-0.090zM31.69 18.125c0.132 0 0.219-0.071 0.219-0.177v-0.002c0-0.115-0.085-0.175-0.214-0.175h-0.202v0.354z"></path>
</symbol>
<symbol id="icon-marker" viewBox="0 0 32 32">
<title>marker</title>
<path fill="#7e5aff" style="fill: var(--color2, #7e5aff)" d="M20.571 11.429q0-1.893-1.339-3.232t-3.232-1.339-3.232 1.339-1.339 3.232 1.339 3.232 3.232 1.339 3.232-1.339 1.339-3.232zM25.143 11.429q0 1.946-0.589 3.196l-6.5 13.821q-0.286 0.589-0.848 0.929t-1.205 0.339-1.205-0.339-0.83-0.929l-6.518-13.821q-0.589-1.25-0.589-3.196 0-3.786 2.679-6.464t6.464-2.679 6.464 2.679 2.679 6.464z"></path>
</symbol>
<symbol id="icon-phone" viewBox="0 0 32 32">
<title>phone</title>
<path fill="#7e5aff" style="fill: var(--color2, #7e5aff)" d="M28.571 22.143q0 0.482-0.179 1.259t-0.375 1.223q-0.375 0.893-2.179 1.893-1.679 0.911-3.321 0.911-0.482 0-0.946-0.063t-1.027-0.223-0.839-0.259-0.991-0.366-0.875-0.321q-1.75-0.625-3.125-1.482-2.268-1.411-4.714-3.857t-3.857-4.714q-0.857-1.375-1.482-3.125-0.054-0.161-0.321-0.875t-0.366-0.991-0.259-0.839-0.223-1.027-0.063-0.946q0-1.643 0.911-3.321 1-1.804 1.893-2.179 0.446-0.196 1.223-0.375t1.259-0.179q0.25 0 0.375 0.054 0.321 0.107 0.946 1.357 0.196 0.339 0.536 0.964t0.625 1.134 0.554 0.955q0.054 0.071 0.313 0.446t0.384 0.634 0.125 0.509q0 0.357-0.509 0.893t-1.107 0.982-1.107 0.946-0.509 0.821q0 0.161 0.089 0.402t0.152 0.366 0.25 0.429 0.205 0.339q1.357 2.446 3.107 4.196t4.196 3.107q0.036 0.018 0.339 0.205t0.429 0.25 0.366 0.152 0.402 0.089q0.321 0 0.821-0.509t0.946-1.107 0.982-1.107 0.893-0.509q0.25 0 0.509 0.125t0.634 0.384 0.446 0.313q0.446 0.268 0.955 0.554t1.134 0.625 0.964 0.536q1.25 0.625 1.357 0.946 0.054 0.125 0.054 0.375z"></path>
</symbol>
<symbol id="icon-plus" viewBox="0 0 32 32">
<title>plus</title>
<path fill="none" stroke="#fff" style="stroke: var(--color1, #fff)" stroke-linejoin="miter" stroke-linecap="butt" stroke-miterlimit="50" stroke-width="0.8" d="M16 0c8.836 0 16 7.163 16 16s-7.164 16-16 16-16-7.164-16-16c0-8.837 7.164-16 16-16z"></path>
<path fill="none" stroke="#fff" style="stroke: var(--color1, #fff)" stroke-linejoin="miter" stroke-linecap="butt" stroke-miterlimit="50" stroke-width="0.8" d="M11.6 16.4v-0.4h4.4v-4.4h0.4v4.4h4.4v0.4h-4.4v4.4h-0.4v-4.4z"></path>
</symbol>
<symbol id="icon-twiter" viewBox="0 0 32 32">
<title>twiter</title>
<path fill="#fff" style="fill: var(--color1, #fff)" d="M30.071 7.286q-1.196 1.75-2.893 2.982 0.018 0.25 0.018 0.75 0 2.321-0.679 4.634t-2.063 4.437-3.295 3.759-4.607 2.607-5.768 0.973q-4.839 0-8.857-2.589 0.625 0.071 1.393 0.071 4.018 0 7.161-2.464-1.875-0.036-3.357-1.152t-2.036-2.848q0.589 0.089 1.089 0.089 0.768 0 1.518-0.196-2-0.411-3.313-1.991t-1.313-3.67v-0.071q1.214 0.679 2.607 0.732-1.179-0.786-1.875-2.054t-0.696-2.75q0-1.571 0.786-2.911 2.161 2.661 5.259 4.259t6.634 1.777q-0.143-0.679-0.143-1.321 0-2.393 1.688-4.080t4.080-1.688q2.5 0 4.214 1.821 1.946-0.375 3.661-1.393-0.661 2.054-2.536 3.179 1.661-0.179 3.321-0.893z"></path>
</symbol>
<symbol id="icon-view360" viewBox="0 0 32 32">
<title>view360</title>
<path fill="#fff" style="fill: var(--color1, #fff)" d="M30.071 7.286q-1.196 1.75-2.893 2.982 0.018 0.25 0.018 0.75 0 2.321-0.679 4.634t-2.063 4.437-3.295 3.759-4.607 2.607-5.768 0.973q-4.839 0-8.857-2.589 0.625 0.071 1.393 0.071 4.018 0 7.161-2.464-1.875-0.036-3.357-1.152t-2.036-2.848q0.589 0.089 1.089 0.089 0.768 0 1.518-0.196-2-0.411-3.313-1.991t-1.313-3.67v-0.071q1.214 0.679 2.607 0.732-1.179-0.786-1.875-2.054t-0.696-2.75q0-1.571 0.786-2.911 2.161 2.661 5.259 4.259t6.634 1.777q-0.143-0.679-0.143-1.321 0-2.393 1.688-4.080t4.080-1.688q2.5 0 4.214 1.821 1.946-0.375 3.661-1.393-0.661 2.054-2.536 3.179 1.661-0.179 3.321-0.893z"></path>
</symbol>
<symbol id="icon-arrow" viewBox="0 0 32 32">
<title>arrow</title>
<path fill="#fff" style="fill: var(--color1, #fff)" d="M24.911 13.143q0 0.232-0.179 0.411l-8.321 8.321q-0.179 0.179-0.411 0.179t-0.411-0.179l-8.321-8.321q-0.179-0.179-0.179-0.411t0.179-0.411l0.893-0.893q0.179-0.179 0.411-0.179t0.411 0.179l7.018 7.018 7.018-7.018q0.179-0.179 0.411-0.179t0.411 0.179l0.893 0.893q0.179 0.179 0.179 0.411z"></path>
</symbol>
<symbol id="icon-clock" viewBox="0 0 32 32">
<title>clock</title>
<path fill="#7e5aff" style="fill: var(--color2, #7e5aff)" d="M18.286 9.714v8q0 0.25-0.161 0.411t-0.411 0.161h-5.714q-0.25 0-0.411-0.161t-0.161-0.411v-1.143q0-0.25 0.161-0.411t0.411-0.161h4v-6.286q0-0.25 0.161-0.411t0.411-0.161h1.143q0.25 0 0.411 0.161t0.161 0.411zM25.714 16q0-2.643-1.304-4.875t-3.536-3.536-4.875-1.304-4.875 1.304-3.536 3.536-1.304 4.875 1.304 4.875 3.536 3.536 4.875 1.304 4.875-1.304 3.536-3.536 1.304-4.875zM29.714 16q0 3.732-1.839 6.884t-4.991 4.991-6.884 1.839-6.884-1.839-4.991-4.991-1.839-6.884 1.839-6.884 4.991-4.991 6.884-1.839 6.884 1.839 4.991 4.991 1.839 6.884z"></path>
</symbol>
<symbol id="icon-facebook" viewBox="0 0 32 32">
<title>facebook</title>
<path fill="#fff" style="fill: var(--color1, #fff)" d="M23.982 0.214v4.714h-2.804q-1.536 0-2.071 0.643t-0.536 1.929v3.375h5.232l-0.696 5.286h-4.536v13.554h-5.464v-13.554h-4.554v-5.286h4.554v-3.893q0-3.321 1.857-5.152t4.946-1.83q2.625 0 4.071 0.214z"></path>
</symbol>
<symbol id="icon-icon-map" viewBox="0 0 32 32">
<title>icon-map</title>
<path fill="#fff" style="fill: var(--color1, #fff)" opacity="0.24300000000000002" d="M16 0c8.837 0 16 7.163 16 16s-7.163 16-16 16-16-7.163-16-16 7.163-16 16-16z"></path>
<path fill="#b0b0b0" style="fill: var(--color3, #b0b0b0)" opacity="0.010125" d="M16 5.434c5.835 0 10.566 4.731 10.566 10.566s-4.731 10.566-10.566 10.566-10.566-4.731-10.566-10.566 4.731-10.566 10.566-10.566z"></path>
<path fill="#fff" style="fill: var(--color1, #fff)" opacity="0.648" d="M16 5.434c5.835 0 10.566 4.731 10.566 10.566s-4.731 10.566-10.566 10.566-10.566-4.731-10.566-10.566 4.731-10.566 10.566-10.566z"></path>
<path fill="#7e5aff" style="fill: var(--color2, #7e5aff)" opacity="0.81" d="M16 13.585c1.334 0 2.415 1.081 2.415 2.415s-1.081 2.415-2.415 2.415v0c-1.334 0-2.415-1.081-2.415-2.415s1.081-2.415 2.415-2.415v0z"></path>
</symbol>
<symbol id="icon-inbox" viewBox="0 0 32 32">
<title>inbox</title>
<path fill="#7e5aff" style="fill: var(--color2, #7e5aff)" d="M20.554 17.143h5.643q-0.018-0.054-0.045-0.152t-0.045-0.134l-3.786-8.857h-12.643l-3.786 8.857q-0.018 0.054-0.045 0.152t-0.045 0.134h5.643l1.696 3.429h5.714zM29.714 17.679v8.607q0 0.464-0.339 0.804t-0.804 0.339h-25.143q-0.464 0-0.804-0.339t-0.339-0.804v-8.607q0-1.107 0.446-2.196l4.25-9.857q0.179-0.446 0.652-0.75t0.938-0.304h14.857q0.464 0 0.938 0.304t0.652 0.75l4.25 9.857q0.446 1.089 0.446 2.196z"></path>
</symbol>
</defs>
</svg>
