<svg style="position: absolute; width: 0; height: 0; overflow: hidden;" version="1.1" xmlns="http://www.w3.org/2000/svg" xmlns:xlink="http://www.w3.org/1999/xlink">
<defs>
<symbol id="icon-facebook" viewBox="0 0 32 32">
<title>facebook</title>
<path d="M30.6 0h-29.2c-0.8 0-1.4 0.6-1.4 1.4v29.4c0 0.6 0.6 1.2 1.4 1.2h14.6v-10h-4v-6h4v-4c0-4.2 2.4-6 6-6 1.8 0 3.6 0 4 0v6h-2c-1.2 0-2 0.8-2 2v2h5.2l-1.2 6h-4v10h8.6c0.8 0 1.4-0.6 1.4-1.4v-29.2c0-0.8-0.6-1.4-1.4-1.4z"></path>
</symbol>
<symbol id="icon-instagram" viewBox="0 0 32 32">
<title>instagram</title>
<path d="M26.21 7.784c0 1.060-0.86 1.92-1.92 1.92s-1.92-0.86-1.92-1.92c0-1.060 0.86-1.92 1.92-1.92s1.92 0.86 1.92 1.92z"></path>
<path d="M16 24c-4.412 0-8-3.588-8-8s3.588-8 8-8 8 3.588 8 8-3.588 8-8 8zM16 12c-2.206 0-4 1.794-4 4s1.794 4 4 4 4-1.794 4-4-1.794-4-4-4z"></path>
<path d="M24 32h-16c-4.112 0-8-3.888-8-8v-16c0-4.112 3.888-8 8-8h16c4.112 0 8 3.888 8 8v16c0 4.112-3.888 8-8 8zM8 4c-1.87 0-4 2.13-4 4v16c0 1.906 2.094 4 4 4h16c1.87 0 4-2.13 4-4v-16c0-1.87-2.13-4-4-4h-16z"></path>
</symbol>
<symbol id="icon-twitter" viewBox="0 0 32 32">
<title>twitter</title>
<path d="M32 6c-1.2 0.6-2.4 0.8-3.8 1 1.4-0.8 2.4-2 2.8-3.6-1.2 0.8-2.6 1.2-4.2 1.6-1.2-1.2-3-2-4.8-2-3.4 0-6.4 3-6.4 6.6 0 0.6 0 1 0.2 1.4-5.4-0.2-10.4-2.8-13.6-6.8-0.6 1-0.8 2-0.8 3.4 0 2.2 1.2 4.2 3 5.4-1 0-2-0.4-3-0.8 0 0 0 0 0 0 0 3.2 2.2 5.8 5.2 6.4-0.6 0.2-1.2 0.2-1.8 0.2-0.4 0-0.8 0-1.2-0.2 0.8 2.6 3.2 4.6 6.2 4.6-2.2 1.8-5 2.8-8.2 2.8-0.6 0-1 0-1.6 0 3 1.8 6.4 3 10 3 12 0 18.6-10 18.6-18.6 0-0.2 0-0.6 0-0.8 1.4-1 2.6-2.2 3.4-3.6z"></path>
</symbol>
<symbol id="icon-youtube" viewBox="0 0 32 32">
<title>youtube</title>
<path d="M31.6 9.6c-0.4-2.6-1.6-4.4-4.4-4.8-4.4-0.8-11.2-0.8-11.2-0.8s-6.8 0-11.2 0.8c-2.8 0.4-4.2 2.2-4.4 4.8-0.4 2.6-0.4 6.4-0.4 6.4s0 3.8 0.4 6.4c0.4 2.6 1.6 4.4 4.4 4.8 4.4 0.8 11.2 0.8 11.2 0.8s6.8 0 11.2-0.8c2.8-0.6 4-2.2 4.4-4.8s0.4-6.4 0.4-6.4 0-3.8-0.4-6.4zM12 22v-12l10 6-10 6z"></path>
</symbol>
</defs>
</svg>
